<?xml version="1.0" encoding="utf-8"?>
<!-- Generator: Adobe Illustrator 23.1.1, SVG Export Plug-In . SVG Version: 6.00 Build 0)  -->
<svg version="1.1" id="Calque_1" xmlns="http://www.w3.org/2000/svg" xmlns:xlink="http://www.w3.org/1999/xlink" x="0px" y="0px"
	 width="174.4px" height="46px" viewBox="0 0 174.4 46" style="enable-background:new 0 0 174.4 46;" xml:space="preserve">
<g>
	<path d="M23,28.3h-8.3l-1.5,4.3H9.6L17,12.3h3.7l7.4,20.3h-3.6L23,28.3z M22.1,25.4l-3.2-9.5l-3.2,9.5H22.1z"/>
	<path d="M30.9,12.3h3.3v20.3h-3.3V12.3z"/>
</g>
<g>
	<path d="M49.3,22.4C49.3,16.7,54,12,59.8,12c4,0,7.4,2.2,9.2,5.4l-2.9,1.5c-1.2-2.2-3.6-3.7-6.3-3.7c-4,0-7.2,3.1-7.2,7.1
		s3.2,7.1,7.2,7.1c2.8,0,5.1-1.5,6.3-3.7l2.9,1.5c-1.8,3.2-5.2,5.4-9.2,5.4C54,32.8,49.3,28.2,49.3,22.4z"/>
	<path d="M70.5,25.8c0-3.9,3.1-7,7.3-7c4.2,0,7.3,3.1,7.3,7s-3.1,7-7.3,7S70.5,29.8,70.5,25.8z M81.9,25.8c0-2.3-1.8-4.1-4.1-4.1
		c-2.3,0-4.1,1.8-4.1,4.1s1.8,4.1,4.1,4.1S81.9,28.1,81.9,25.8z"/>
	<path d="M107.4,24v8.6h-3.2v-8.2c0-1.4-1.1-2.6-2.4-2.6c-1.5,0-2.4,1.2-2.4,2.6v8.2h-3.2v-8.2c0-1.4-1.1-2.6-2.4-2.6
		c-1.5,0-2.4,1.2-2.4,2.6v8.2h-3.2V19.1h3.2v1.4c0.8-1,2-1.7,3.4-1.7c1.5,0,2.9,0.8,3.8,2.1c0.9-1.3,2.3-2.1,4.1-2.1
		C105.4,18.8,107.4,21,107.4,24z"/>
	<path d="M130.4,24v8.6h-3.2v-8.2c0-1.4-1.1-2.6-2.4-2.6c-1.5,0-2.4,1.2-2.4,2.6v8.2h-3.2v-8.2c0-1.4-1.1-2.6-2.4-2.6
		c-1.5,0-2.4,1.2-2.4,2.6v8.2h-3.2V19.1h3.2v1.4c0.8-1,2-1.7,3.4-1.7c1.5,0,2.9,0.8,3.8,2.1c0.9-1.3,2.3-2.1,4.1-2.1
		C128.4,18.8,130.4,21,130.4,24z"/>
	<path d="M133,25.8c0-3.9,3.1-7,7.3-7s7.3,3.1,7.3,7s-3.1,7-7.3,7C136.1,32.8,133,29.8,133,25.8z M144.4,25.8c0-2.3-1.8-4.1-4.1-4.1
		s-4.1,1.8-4.1,4.1s1.8,4.1,4.1,4.1S144.4,28.1,144.4,25.8z"/>
	<path d="M162.1,23.9v8.7h-3.2v-8.2c0-1.5-1.1-2.6-2.6-2.6s-2.7,1.1-2.7,2.6v8.2h-3.2V19.1h3.2v1.3c0.9-1,2.2-1.6,3.6-1.6
		C159.9,18.8,162.1,21,162.1,23.9z"/>
	<path d="M164.4,29.7l2.6-1.2c0.4,1,1.5,1.5,2.5,1.5s1.7-0.5,1.7-1.3s-0.6-1.1-2.1-1.7c-2-0.7-4-1.8-4-4.2s1.9-4.1,4.5-4.1
		c1.8,0,3.6,0.9,4.3,2.1l-2,1.7c-0.4-0.6-1.2-1-2-1c-0.9,0-1.5,0.4-1.5,1.2c0,0.8,0.6,1.1,2,1.7c1.8,0.7,4,1.8,4,4.3
		c0,2.4-1.9,4.2-4.7,4.2C167.3,32.8,165,31.6,164.4,29.7z"/>
</g>
<path d="M23,46C10.3,46,0,35.7,0,23S10.3,0,23,0c4,0,8,1.1,11.5,3.1c1.7,1,3.3,2.2,4.8,3.7c0.5,0.5,0.9,1,1.4,1.5
	c0.8,1,1.6,2.1,2.3,3.2c0.7,1.2,1.3,2.4,1.7,3.7l-3.3,1.2c-0.4-1.1-0.9-2.1-1.5-3.1s-1.2-1.9-1.9-2.7c-0.4-0.4-0.8-0.9-1.2-1.3
	c-1.2-1.2-2.6-2.3-4-3.1c-3-1.7-6.3-2.6-9.8-2.6c-10.8,0-19.5,8.8-19.5,19.5c0,10.8,8.8,19.5,19.5,19.5c3.4,0,6.8-0.9,9.8-2.6
	c1.5-0.9,2.8-1.9,4-3.1c0.4-0.4,0.8-0.8,1.2-1.3c0.7-0.9,1.4-1.8,2-2.8s1-2,1.4-3l3.3,1.2c-0.4,1.2-1,2.4-1.7,3.6
	c-0.7,1.2-1.5,2.3-2.3,3.3c-0.4,0.5-0.9,1-1.4,1.5c-1.4,1.4-3,2.7-4.8,3.7C31.1,44.9,27.1,46,23,46z"/>
</svg>
